<svg width="167" height="38" viewBox="0 0 167 38" fill="none" xmlns="http://www.w3.org/2000/svg">
<g filter="url(#filter0_d_134_4)">
<path d="M145.897 3.47998H151.417V12.44L156.057 3.47998H162.297L156.257 15.12L162.217 31H156.017L152.537 21.4L151.417 23.56V31H145.897V3.47998Z" fill="#2DD4BF"/>
</g>
<g filter="url(#filter1_d_134_4)">
<path d="M133.72 31H128.12V3.47998H135.88C141.68 3.47998 143.88 8.03998 143.88 12C143.88 15.96 142.32 18.08 140.44 19.32L144.6 31H138.56L134.92 20.52H133.72V31ZM133.72 8.99998V15H135.32C138 15 138.28 13.28 138.28 12C138.28 10.72 138 8.99998 135.32 8.99998H133.72Z" fill="#2DD4BF"/>
</g>
<g filter="url(#filter2_d_134_4)">
<path d="M110.023 31L114.023 3.47998H122.983L126.983 31H121.263L120.703 26.2H116.303L115.743 31H110.023ZM117.023 21.08H119.983L118.503 9.23998L117.023 21.08Z" fill="#2DD4BF"/>
</g>
<g filter="url(#filter3_d_134_4)">
<path d="M92.9658 3.47998H98.8058V14.2H102.966V3.47998H108.806V31H102.966V19.88H98.8058V31H92.9658V3.47998Z" fill="#2DD4BF"/>
</g>
<g filter="url(#filter4_d_134_4)">
<path d="M80.9487 21.12V23.4C80.9487 24.88 81.6287 26.04 83.2687 26.04C84.9087 26.04 85.5887 25 85.5887 23.68C85.5887 22.56 85.5887 21.4 82.7087 20.12C77.9087 18 75.4287 16.12 75.4287 10.84C75.4287 5.55996 78.5487 2.95996 83.2687 2.95996C87.9887 2.95996 91.1087 5.79996 91.1087 11.08V12.64H85.5887V11.08C85.5887 9.71996 85.1087 8.39996 83.2687 8.39996C81.4287 8.39996 80.9487 9.63996 80.9487 10.84C80.9487 12.04 81.3087 12.96 84.3087 14.32C88.1087 16.04 91.1087 17.88 91.1087 23.64C91.1087 28.44 88.9487 31.52 83.2687 31.52C77.5887 31.52 75.4287 28.6 75.4287 23.4V21.12H80.9487Z" fill="#2DD4BF"/>
</g>
<g filter="url(#filter5_d_134_4)">
<path d="M65.6515 2.95996C70.6515 2.95996 73.4915 6.31996 73.4915 11.08V23.4C73.4915 28.16 70.6515 31.52 65.6515 31.52C60.6515 31.52 57.8115 28.16 57.8115 23.4V11.08C57.8115 6.31996 60.6515 2.95996 65.6515 2.95996ZM67.8915 22.72V11.76C67.8915 10.6 67.7715 8.47996 65.6515 8.47996C63.5315 8.47996 63.4115 10.6 63.4115 11.76V22.72C63.4115 23.88 63.5315 26 65.6515 26C67.7715 26 67.8915 23.88 67.8915 22.72Z" fill="#2DD4BF"/>
</g>
<g filter="url(#filter6_d_134_4)">
<path d="M40.2744 31V3.47998H47.4344C53.0744 3.47998 55.8744 7.11998 55.8744 11.24V23.24C55.8744 27.36 53.0744 31 47.4344 31H40.2744ZM45.7944 8.91998V25.56H46.9144C50.2744 25.56 50.3544 22.84 50.3544 21.72V12.76C50.3544 11.64 50.2744 8.91998 46.9144 8.91998H45.7944Z" fill="#2DD4BF"/>
</g>
<g filter="url(#filter7_d_134_4)">
<path d="M22.6572 3.47998H28.3372V23.08C28.3372 24.24 28.5372 25.92 30.4172 25.92C32.2972 25.92 32.4972 24.24 32.4972 23.08V3.47998H38.1772V23.4C38.1772 28.52 35.4172 31.52 30.4172 31.52C25.4172 31.52 22.6572 28.52 22.6572 23.4V3.47998Z" fill="#2DD4BF"/>
</g>
<g filter="url(#filter8_d_134_4)">
<path d="M10.48 21.12V23.4C10.48 24.88 11.16 26.04 12.8 26.04C14.44 26.04 15.12 25 15.12 23.68C15.12 22.56 15.12 21.4 12.24 20.12C7.43996 18 4.95996 16.12 4.95996 10.84C4.95996 5.55996 8.07996 2.95996 12.8 2.95996C17.52 2.95996 20.64 5.79996 20.64 11.08V12.64H15.12V11.08C15.12 9.71996 14.64 8.39996 12.8 8.39996C10.96 8.39996 10.48 9.63996 10.48 10.84C10.48 12.04 10.84 12.96 13.84 14.32C17.64 16.04 20.64 17.88 20.64 23.64C20.64 28.44 18.48 31.52 12.8 31.52C7.11996 31.52 4.95996 28.6 4.95996 23.4V21.12H10.48Z" fill="#2DD4BF"/>
</g>
<defs>
<filter id="filter0_d_134_4" x="141.897" y="1.47998" width="24.3999" height="35.52" filterUnits="userSpaceOnUse" color-interpolation-filters="sRGB">
<feFlood flood-opacity="0" result="BackgroundImageFix"/>
<feColorMatrix in="SourceAlpha" type="matrix" values="0 0 0 0 0 0 0 0 0 0 0 0 0 0 0 0 0 0 127 0" result="hardAlpha"/>
<feOffset dy="2"/>
<feGaussianBlur stdDeviation="2"/>
<feComposite in2="hardAlpha" operator="out"/>
<feColorMatrix type="matrix" values="0 0 0 0 0.176471 0 0 0 0 0.831373 0 0 0 0 0.74902 0 0 0 0.16 0"/>
<feBlend mode="normal" in2="BackgroundImageFix" result="effect1_dropShadow_134_4"/>
<feBlend mode="normal" in="SourceGraphic" in2="effect1_dropShadow_134_4" result="shape"/>
</filter>
<filter id="filter1_d_134_4" x="124.12" y="1.47998" width="24.48" height="35.52" filterUnits="userSpaceOnUse" color-interpolation-filters="sRGB">
<feFlood flood-opacity="0" result="BackgroundImageFix"/>
<feColorMatrix in="SourceAlpha" type="matrix" values="0 0 0 0 0 0 0 0 0 0 0 0 0 0 0 0 0 0 127 0" result="hardAlpha"/>
<feOffset dy="2"/>
<feGaussianBlur stdDeviation="2"/>
<feComposite in2="hardAlpha" operator="out"/>
<feColorMatrix type="matrix" values="0 0 0 0 0.176471 0 0 0 0 0.831373 0 0 0 0 0.74902 0 0 0 0.16 0"/>
<feBlend mode="normal" in2="BackgroundImageFix" result="effect1_dropShadow_134_4"/>
<feBlend mode="normal" in="SourceGraphic" in2="effect1_dropShadow_134_4" result="shape"/>
</filter>
<filter id="filter2_d_134_4" x="106.023" y="1.47998" width="24.96" height="35.52" filterUnits="userSpaceOnUse" color-interpolation-filters="sRGB">
<feFlood flood-opacity="0" result="BackgroundImageFix"/>
<feColorMatrix in="SourceAlpha" type="matrix" values="0 0 0 0 0 0 0 0 0 0 0 0 0 0 0 0 0 0 127 0" result="hardAlpha"/>
<feOffset dy="2"/>
<feGaussianBlur stdDeviation="2"/>
<feComposite in2="hardAlpha" operator="out"/>
<feColorMatrix type="matrix" values="0 0 0 0 0.176471 0 0 0 0 0.831373 0 0 0 0 0.74902 0 0 0 0.16 0"/>
<feBlend mode="normal" in2="BackgroundImageFix" result="effect1_dropShadow_134_4"/>
<feBlend mode="normal" in="SourceGraphic" in2="effect1_dropShadow_134_4" result="shape"/>
</filter>
<filter id="filter3_d_134_4" x="88.9658" y="1.47998" width="23.8401" height="35.52" filterUnits="userSpaceOnUse" color-interpolation-filters="sRGB">
<feFlood flood-opacity="0" result="BackgroundImageFix"/>
<feColorMatrix in="SourceAlpha" type="matrix" values="0 0 0 0 0 0 0 0 0 0 0 0 0 0 0 0 0 0 127 0" result="hardAlpha"/>
<feOffset dy="2"/>
<feGaussianBlur stdDeviation="2"/>
<feComposite in2="hardAlpha" operator="out"/>
<feColorMatrix type="matrix" values="0 0 0 0 0.176471 0 0 0 0 0.831373 0 0 0 0 0.74902 0 0 0 0.16 0"/>
<feBlend mode="normal" in2="BackgroundImageFix" result="effect1_dropShadow_134_4"/>
<feBlend mode="normal" in="SourceGraphic" in2="effect1_dropShadow_134_4" result="shape"/>
</filter>
<filter id="filter4_d_134_4" x="71.4287" y="0.959961" width="23.6799" height="36.5601" filterUnits="userSpaceOnUse" color-interpolation-filters="sRGB">
<feFlood flood-opacity="0" result="BackgroundImageFix"/>
<feColorMatrix in="SourceAlpha" type="matrix" values="0 0 0 0 0 0 0 0 0 0 0 0 0 0 0 0 0 0 127 0" result="hardAlpha"/>
<feOffset dy="2"/>
<feGaussianBlur stdDeviation="2"/>
<feComposite in2="hardAlpha" operator="out"/>
<feColorMatrix type="matrix" values="0 0 0 0 0.176471 0 0 0 0 0.831373 0 0 0 0 0.74902 0 0 0 0.16 0"/>
<feBlend mode="normal" in2="BackgroundImageFix" result="effect1_dropShadow_134_4"/>
<feBlend mode="normal" in="SourceGraphic" in2="effect1_dropShadow_134_4" result="shape"/>
</filter>
<filter id="filter5_d_134_4" x="53.8115" y="0.959961" width="23.6799" height="36.5601" filterUnits="userSpaceOnUse" color-interpolation-filters="sRGB">
<feFlood flood-opacity="0" result="BackgroundImageFix"/>
<feColorMatrix in="SourceAlpha" type="matrix" values="0 0 0 0 0 0 0 0 0 0 0 0 0 0 0 0 0 0 127 0" result="hardAlpha"/>
<feOffset dy="2"/>
<feGaussianBlur stdDeviation="2"/>
<feComposite in2="hardAlpha" operator="out"/>
<feColorMatrix type="matrix" values="0 0 0 0 0.176471 0 0 0 0 0.831373 0 0 0 0 0.74902 0 0 0 0.16 0"/>
<feBlend mode="normal" in2="BackgroundImageFix" result="effect1_dropShadow_134_4"/>
<feBlend mode="normal" in="SourceGraphic" in2="effect1_dropShadow_134_4" result="shape"/>
</filter>
<filter id="filter6_d_134_4" x="36.2744" y="1.47998" width="23.6001" height="35.52" filterUnits="userSpaceOnUse" color-interpolation-filters="sRGB">
<feFlood flood-opacity="0" result="BackgroundImageFix"/>
<feColorMatrix in="SourceAlpha" type="matrix" values="0 0 0 0 0 0 0 0 0 0 0 0 0 0 0 0 0 0 127 0" result="hardAlpha"/>
<feOffset dy="2"/>
<feGaussianBlur stdDeviation="2"/>
<feComposite in2="hardAlpha" operator="out"/>
<feColorMatrix type="matrix" values="0 0 0 0 0.176471 0 0 0 0 0.831373 0 0 0 0 0.74902 0 0 0 0.16 0"/>
<feBlend mode="normal" in2="BackgroundImageFix" result="effect1_dropShadow_134_4"/>
<feBlend mode="normal" in="SourceGraphic" in2="effect1_dropShadow_134_4" result="shape"/>
</filter>
<filter id="filter7_d_134_4" x="18.6572" y="1.47998" width="23.52" height="36.04" filterUnits="userSpaceOnUse" color-interpolation-filters="sRGB">
<feFlood flood-opacity="0" result="BackgroundImageFix"/>
<feColorMatrix in="SourceAlpha" type="matrix" values="0 0 0 0 0 0 0 0 0 0 0 0 0 0 0 0 0 0 127 0" result="hardAlpha"/>
<feOffset dy="2"/>
<feGaussianBlur stdDeviation="2"/>
<feComposite in2="hardAlpha" operator="out"/>
<feColorMatrix type="matrix" values="0 0 0 0 0.176471 0 0 0 0 0.831373 0 0 0 0 0.74902 0 0 0 0.16 0"/>
<feBlend mode="normal" in2="BackgroundImageFix" result="effect1_dropShadow_134_4"/>
<feBlend mode="normal" in="SourceGraphic" in2="effect1_dropShadow_134_4" result="shape"/>
</filter>
<filter id="filter8_d_134_4" x="0.959961" y="0.959961" width="23.6799" height="36.5601" filterUnits="userSpaceOnUse" color-interpolation-filters="sRGB">
<feFlood flood-opacity="0" result="BackgroundImageFix"/>
<feColorMatrix in="SourceAlpha" type="matrix" values="0 0 0 0 0 0 0 0 0 0 0 0 0 0 0 0 0 0 127 0" result="hardAlpha"/>
<feOffset dy="2"/>
<feGaussianBlur stdDeviation="2"/>
<feComposite in2="hardAlpha" operator="out"/>
<feColorMatrix type="matrix" values="0 0 0 0 0.176471 0 0 0 0 0.831373 0 0 0 0 0.74902 0 0 0 0.16 0"/>
<feBlend mode="normal" in2="BackgroundImageFix" result="effect1_dropShadow_134_4"/>
<feBlend mode="normal" in="SourceGraphic" in2="effect1_dropShadow_134_4" result="shape"/>
</filter>
</defs>
</svg>
